# xmcd
#
# Track frame offsets:
#	150
#	16711
#	31523
#	49634
#	68467
#	92248
#	125562
#	145646
#	164558
#	183834
#	203609
#	213731
#	233873
#	252980
#	270770
#	287288
#	306205
#
# Disc length: 4323 seconds
# Revision: 0
# Processed by: cddbd v1.5.2PL0 Copyright (c) Steve Scherf et al.
# Submitted via: dBpowerAMP V12.0
#
DISCID=da10e111
DTITLE=Various Artist - Deep South Festival Promo Cd 2015
DYEAR=2015
DGENRE=Blues
TTITLE0=Fiona Boyes - Walking Round Money
TTITLE1=Zkye - I Lost You
TTITLE2=Ursula - Disgrace
TTITLE3=Jan Preston - Driving back To Sydney
TTITLE4=Mojo Webb - The Cat
TTITLE5=Ray Beadle - Who Loves You Baby
TTITLE6=Wasted Wanderers - Keep It To Yourself
TTITLE7=Shaun Kirk - Blues For My Birthday
TTITLE8=Pugsley Buzzard - Dirty Wings
TTITLE9=Double Wammy - Fender Bender
TTITLE10=Benny C and The Associates - Tea For Two
TTITLE11=Blue Eyes Cry - Leaving Trunk
TTITLE12=Psycho Zydeco - Richard's Club
TTITLE13=The Backsliders - Dark Side Of Newtown
TTITLE14=Ray Beadle - Temptation (Acoustic)
TTITLE15=Ciaram - On My Mind
TTITLE16=Brenton Manser - Dogged Old Joy
EXTD=
EXTT0=
EXTT1=
EXTT2=
EXTT3=
EXTT4=
EXTT5=
EXTT6=
EXTT7=
EXTT8=
EXTT9=
EXTT10=
EXTT11=
EXTT12=
EXTT13=
EXTT14=
EXTT15=
EXTT16=
PLAYORDER=
